<svg width="273" height="273" xmlns="http://www.w3.org/2000/svg" xmlns:xlink="http://www.w3.org/1999/xlink" xml:space="preserve" overflow="hidden"><defs><clipPath id="clip0"><path d="M352.178 862.994 478.212 727.723 624.727 864.233 498.693 999.505Z" fill-rule="evenodd" clip-rule="evenodd"/></clipPath><clipPath id="clip1"><path d="M352.178 862.994 478.212 727.723 624.727 864.233 498.693 999.505Z" fill-rule="evenodd" clip-rule="evenodd"/></clipPath><clipPath id="clip2"><path d="M352.178 862.994 478.212 727.723 624.727 864.233 498.693 999.505Z" fill-rule="evenodd" clip-rule="evenodd"/></clipPath></defs><g transform="translate(-352 -727)"><g clip-path="url(#clip0)"><g clip-path="url(#clip1)"><g clip-path="url(#clip2)"><path d="M98.9344 200.059C95.415 199.777 93.3816 198.776 89.8934 195.601 89.127 194.912 88.0477 194.005 87.5002 193.567 86.2176 192.566 85.2009 191.205 84.7004 189.813 84.4814 189.219 84.059 187.608 83.7462 186.231 83.4334 184.87 82.9798 183.259 82.7295 182.634 82.4792 182.024 82.2759 181.429 82.2759 181.32 82.2759 180.976 82.6513 180.96 83.6054 181.288 84.1216 181.476 85.9361 181.898 87.6254 182.227 92.662 183.244 93.6162 183.791 95.7904 186.92 96.1502 187.42 97.2138 188.859 98.1679 190.11 99.1221 191.362 100.264 193.098 100.718 193.958 101.375 195.225 101.703 195.663 102.423 196.242 103.721 197.306 104.988 197.869 106.067 197.869 107.037 197.869 109.102 197.321 110.509 196.696 111.589 196.226 114.029 194.506 115.405 193.254 117.267 191.549 119.832 187.905 122.006 183.854 124.165 179.818 124.994 178.708 126.605 177.722 127.387 177.253 127.496 177.143 127.23 177.05 127.074 176.987 126.339 176.705 125.604 176.44 123.695 175.736 120.442 174.14 118.737 173.077 113.716 169.964 110.228 166.304 103.596 157.231L102.219 155.339 99.2472 155.245C87.4846 154.901 79.5073 152.695 72.8439 147.956 70.8104 146.485 69.7937 145.453 69.0898 144.124 68.0731 142.168 67.8229 140.463 68.2608 138.774 68.7457 136.96 70.6384 133.675 71.1389 133.769 71.3266 133.8 71.5769 134.316 71.9523 135.458 73.0316 138.649 74.3455 140.823 76.4415 142.903 80.1486 146.579 84.3562 149.019 89.6901 150.568 91.8956 151.209 95.3524 151.819 97.4484 151.96 98.2618 152.007 99.1221 152.085 99.3724 152.117 99.607 152.163 99.7947 152.117 99.7947 152.038 99.7947 151.866 94.7424 145.125 92.6307 142.481 88.8767 137.789 84.1998 133.221 80.7899 130.922 78.4436 129.342 76.0348 128.404 73.579 128.138 72.8126 128.044 72.0149 127.903 71.7959 127.825 71.3735 127.668 68.6049 125.479 68.167 124.947 67.6977 124.415 67.8229 123.899 68.5424 123.21 70.044 121.787 72.0149 121.412 74.2203 122.147 78.0213 123.398 82.401 126.135 87.0623 130.171 90.9258 133.503 93.4598 136.725 100.217 146.845 102.986 150.99 103.643 151.882 103.94 151.882 104.127 151.882 105.222 151.741 106.364 151.569 114.31 150.365 119.394 148.112 123.586 143.92 125.166 142.34 125.51 141.902 126.12 140.698 128.482 135.959 128.56 131.235 126.323 125.963 125.322 123.602 124.477 122.256 122.538 119.816 120.864 117.736 117.141 113.857 115.405 112.402L114.514 111.651 111.729 111.198C104.112 109.931 95.853 109.102 83.9183 108.398 62.1605 107.131 50.523 106.098 36.7582 104.237 28.7183 103.158 21.4762 100.952 16.5647 98.121 13.0453 96.0876 9.29123 92.3179 6.36621 87.86 3.20657 83.058 2.12729 79.7263 2.14293 74.6896 2.14293 70.3412 3.26914 65.6017 5.08359 62.3951L5.81875 61.1125 4.80203 59.0634C2.33063 54.105 1.07928 49.7879 0.281552 43.4842 0.0156418 41.31 0.0156418 35.0689 0.297194 33.2388 1.15749 27.4201 2.81552 22.8527 6.13159 17.1278 10.0108 10.4487 12.7168 7.72705 19.2394 4.0043 21.4293 2.75296 21.9767 2.36191 23.6035 0.985433 24.7453 0.0156418 25.1833-0.140776 25.8872 0.203343 27.248 0.844657 28.0927 4.83332 27.7016 8.75941 27.3262 12.4196 26.4972 14.234 25.2146 14.234 24.7297 14.234 24.4951 14.062 23.3689 12.9201 21.8516 11.3716 21.4136 11.1839 19.7712 11.309 18.7389 11.3872 18.5512 11.4498 17.7222 12.0598 13.3581 15.2508 9.1661 20.2874 6.25672 25.8559 2.94066 32.2065 1.76752 39.5112 2.65911 48.2706 2.97194 51.3364 4.55176 56.2479 6.22544 59.3919L6.49135 59.9081 7.49242 58.2188C8.05553 57.2959 8.99404 55.8099 9.58842 54.9184 10.3392 53.7765 10.6364 53.1821 10.5739 52.9631 10.5426 52.7754 10.1828 51.7274 9.79177 50.6012 8.61863 47.2695 8.38401 45.893 8.39965 42.7803 8.43093 34.9438 10.9336 28.3429 15.0474 25.2146 17.3468 23.4783 19.0517 22.9152 21.0539 23.2594 22.4616 23.5096 22.837 23.7755 22.837 24.5576 22.837 25.3554 22.0706 27.467 21.4293 28.3899 21.1634 28.7809 19.9746 30.1105 18.7858 31.3305 16.3613 33.8645 15.7826 34.6153 14.9066 36.3672 14.0933 37.9783 13.5614 39.5425 13.1078 41.6072 12.8106 42.9837 12.7637 43.6875 12.7637 45.9087 12.7794 47.379 12.8419 48.8806 12.9201 49.256L13.0609 49.9443 13.7335 49.0527C14.1089 48.5678 14.9379 47.5354 15.5792 46.7533 16.4865 45.6584 16.8306 45.3612 17.0965 45.3925 17.6752 45.4707 17.5657 45.9243 16.7054 46.9567 16.2362 47.5042 15.282 48.6773 14.5625 49.5689 13.0453 51.4772 13.0765 51.1174 14.1871 54.496 15.4854 58.3908 18.2383 63.2554 21.3511 67.1033 23.2437 69.434 23.3219 69.5434 23.2124 69.825 23.0404 70.263 22.4773 70.1066 21.9611 69.4809 18.7232 65.5391 17.644 64.2096 16.2831 62.3795 14.5469 60.0489 12.7324 57.2021 11.8252 55.4189 11.5124 54.7932 11.2308 54.2771 11.1995 54.2771 10.9493 54.2771 8.08681 59.8925 7.66448 61.1907 7.49242 61.7538 7.52371 61.832 8.07117 62.7549 10.0108 66.0084 12.6855 69.3088 16.1893 72.8282 20.4125 77.0672 22.665 78.8972 26.6693 81.3374 35.1471 86.4992 46.1277 89.8621 64.0532 92.7559 77.5208 94.9301 86.2958 96.7915 95.1021 99.3254 101.75 101.249 107.584 103.924 113.387 107.725L115.155 108.883 117.454 109.274C118.706 109.493 121.114 109.946 122.788 110.275 128.325 111.401 134.473 113.747 138.899 116.438L140.072 117.141 140.119 116.672C140.197 115.953 139.713 113.888 139.368 113.45 138.555 112.418 137.366 111.839 135.239 111.432 133.722 111.135 133.331 110.947 132.596 110.134 131.907 109.367 131.61 108.695 131.36 107.365L131.188 106.364 131.829 105.082C132.642 103.424 133.675 102.282 136.553 99.8729L138.837 97.9646 141.324 98.0897C145.484 98.3087 146.955 98.6372 148.488 99.6539 149.895 100.577 150.756 102.219 151.334 105.035 151.804 107.303 151.334 108.319 149.426 109.18 147.142 110.212 145.265 111.651 144.671 112.809 144.28 113.575 144.17 115.421 144.327 118.189L144.468 120.395 146.001 122.1C148.879 125.306 150.959 128.325 152.523 131.626 154.791 136.381 155.558 140.088 155.745 147.346 155.839 151.147 155.605 154.478 155.01 157.325 154.744 158.639 154.744 158.811 154.963 159.249 155.167 159.64 155.182 160.047 155.104 161.408 154.963 163.379 155.182 164.724 156.136 167.977 157.247 171.825 159.453 176.674 160.735 178.129 161.705 179.239 163.426 180.6 164.458 181.069 165.725 181.648 167.962 182.102 168.65 181.914 170.042 181.523 171.2 180.084 171.168 178.77 171.168 178.098 170.167 176.142 169.197 174.828 168.822 174.328 167.852 172.779 167.054 171.387 166.272 169.995 165.193 168.228 164.661 167.445 164.145 166.679 163.379 165.537 162.972 164.943 161.595 162.878 160.782 158.733 160.766 153.681 160.766 150.396 161.267 148.754 162.784 147.174 164.02 145.875 164.958 145.172 167.993 143.295 169.416 142.403 171.043 141.308 171.622 140.839 172.201 140.37 172.717 139.994 172.764 139.994 172.811 139.994 173.342 140.401 173.937 140.901 174.516 141.386 176.158 142.497 177.566 143.341 182.79 146.532 183.869 147.627 184.589 150.474 184.87 151.569 184.855 155.964 184.589 157.278 184.245 158.858 182.868 163.801 182.509 164.708 181.711 166.71 181.179 167.477 179.099 169.635 176.314 172.513 175.861 173.358 175.126 177.081 174.688 179.255 174.469 180.021 173.952 181.054 172.998 182.993 172.341 183.635 170.855 184.151 170.183 184.37 169.322 184.605 168.931 184.651 167.664 184.824 164.739 183.963 162.675 182.821 161.22 182.024 158.498 179.584 157.435 178.16 156.715 177.175 155.323 174.344 154.15 171.465 153.602 170.12 152.914 168.462 152.617 167.774L152.07 166.538 151.569 167.539C150.208 170.261 147.612 173.342 145.422 174.844 143.701 176.002 141.136 177.003 138.039 177.706 137.398 177.863 136.005 177.925 133.69 177.925 131.829 177.925 130.296 177.972 130.296 178.019 130.296 178.082 129.968 178.16 129.561 178.223 129.139 178.27 128.482 178.426 128.091 178.551 127.418 178.786 127.277 178.942 125.338 181.726 124.227 183.338 122.882 185.324 122.366 186.137 121.85 186.951 121.083 188.155 120.676 188.797 119.691 190.361 116.907 193.88 116.015 194.693 114.936 195.679 112.824 197.212 111.839 197.712 110.666 198.291 109.008 198.885 106.677 199.527 104.988 200.012 104.44 200.09 102.61 200.137 101.453 200.168 99.7947 200.137 98.9344 200.059ZM136.615 173.843C139.306 173.374 141.934 172.357 143.435 171.2 147.455 168.087 150.552 162.143 151.647 155.401 152.32 151.162 152.273 146.36 151.491 141.793 150.818 137.945 150.099 135.693 148.581 132.83 146.548 128.982 142.888 124.54 139.759 122.084 135.818 119.003 130.327 116.219 124.212 114.201 121.568 113.325 120.755 113.09 120.755 113.215 120.77 113.278 121.161 113.638 121.631 114.029 123.226 115.327 127.731 120.035 128.701 121.412 133.816 128.669 134.598 135.802 131.078 143.201 130.453 144.515 130.14 144.953 129.107 146.001 124.415 150.693 117.939 153.446 108.82 154.619 107.803 154.744 106.724 154.854 106.427 154.854 106.145 154.854 105.895 154.901 105.895 154.948 105.895 155.088 108.054 157.857 109.618 159.734 114.999 166.194 118.174 168.822 124.118 171.684 126.855 172.998 128.372 173.546 130.171 173.843 131.954 174.14 134.926 174.14 136.615 173.843ZM109.414 107.944C109.055 107.631 106.13 105.958 104.174 104.972 101.5 103.611 98.9344 102.532 95.9624 101.515 85.2009 97.8551 73.8762 95.1804 60.5181 93.1469 56.2636 92.5056 49.694 91.1135 45.0327 89.8621 36.8521 87.6723 30.001 84.7629 24.4794 81.134 21.3511 79.0849 19.3802 77.4113 15.6262 73.6729 12.3414 70.3881 10.2454 67.8854 8.08681 64.6945 7.47678 63.7873 7.00753 63.2398 6.97624 63.3649 6.41314 64.9917 5.64669 69.168 5.44335 71.8115 4.88024 78.866 7.08574 84.6534 12.4822 90.2845 15.3446 93.2564 18.0194 95.2116 21.836 97.1199 29.0312 100.686 34.6153 102.125 48.8024 104.018 59.5327 105.441 65.0073 105.832 83.3708 106.442 94.8206 106.834 101.938 107.256 106.99 107.835 109.305 108.1 109.586 108.116 109.414 107.944Z" fill="#FFF8FC" transform="matrix(0.681685 -0.731646 -0.731646 -0.681685 498.679 999.491)"/><path d="M34.4902 79.7106C33.5829 79.2883 33.1137 78.819 32.7696 78.0213 32.5037 77.3487 32.4567 75.894 32.707 75.3466 32.926 74.8617 34.0835 74.1109 35.3035 73.6729 36.1951 73.3444 36.3515 73.3444 37.6498 73.5165 39.5112 73.7511 40.0274 74.0326 40.4966 75.0024 41.7636 77.6772 39.7771 80.086 36.3046 80.086 35.5538 80.086 35.0689 79.9765 34.4902 79.7106Z" fill="#FFF8FC" transform="matrix(0.681685 -0.731646 -0.731646 -0.681685 498.679 999.491)"/><path d="M43.5937 77.8336C41.8418 77.2079 40.5435 75.4717 40.2776 73.4226 40.0743 71.8897 40.6687 70.9981 42.4831 70.1535 42.9993 69.9189 43.7501 69.5591 44.1724 69.3557L44.9545 68.9803 46.4249 69.5278C48.8963 70.4663 49.5845 70.9199 49.913 71.9054 50.132 72.578 49.9756 73.9231 49.5532 75.0494 48.7086 77.3018 45.8461 78.6313 43.5937 77.8336Z" fill="#FFF8FC" transform="matrix(0.681685 -0.731646 -0.731646 -0.681685 498.679 999.491)"/><path d="M32.05 73.6729C30.6736 73.4383 29.3284 72.5154 28.5932 71.311 28.2022 70.6853 27.8424 69.3088 27.8424 68.4329 27.8424 67.4162 28.2804 66.7123 29.2345 66.1805 30.173 65.6643 32.8321 64.8978 33.145 65.0543 33.2858 65.1325 34.1304 65.3827 35.0376 65.6174 37.7437 66.3212 38.1973 66.7592 38.1973 68.8083 38.2129 70.7948 37.3057 72.2808 35.5382 73.188 35.0376 73.4383 33.1606 73.8762 32.8478 73.8137 32.8009 73.798 32.4411 73.7355 32.05 73.6729Z" fill="#FFF8FC" transform="matrix(0.681685 -0.731646 -0.731646 -0.681685 498.679 999.491)"/><path d="M40.5905 67.2441C38.7447 66.9469 37.3683 66.024 37.0711 64.8822 36.9303 64.3973 36.9459 64.0845 37.1493 63.3962 37.509 62.1605 38.5883 61.0969 40.4966 60.0802L41.967 59.3137 43.5155 60.0802C45.3456 61.003 46.2215 61.7382 46.7064 62.8018 47.7701 65.0699 46.5656 66.6966 43.4216 67.2597 42.3736 67.4318 41.7167 67.4318 40.5905 67.2441Z" fill="#FFF8FC" transform="matrix(0.681685 -0.731646 -0.731646 -0.681685 498.679 999.491)"/></g></g></g></g></svg>